<svg width="134" height="18" viewBox="0 0 134 18" fill="none" xmlns="http://www.w3.org/2000/svg">
<path d="M27.8028 0C25.7516 0 23.5141 1.09272 21.1523 3.24693C20.0335 4.26161 19.0546 5.35433 18.3398 6.2285C18.3398 6.2285 19.4897 7.52413 20.7483 8.91347C21.432 8.07049 22.4109 6.93094 23.5451 5.90069C25.6428 3.98062 27.0101 3.59037 27.8028 3.59037C30.7549 3.59037 33.1479 6.00993 33.1479 9.00716C33.1479 11.9731 30.7549 14.3926 27.8028 14.4239C27.6627 14.4239 27.4918 14.4083 27.2899 14.3615C28.1444 14.7517 29.0768 15.0327 29.9469 15.0327C35.3542 15.0327 36.4106 11.3799 36.4728 11.1145C36.6281 10.4433 36.7216 9.74082 36.7216 9.02273C36.706 4.04304 32.7128 0 27.8028 0Z" fill="url(#paint0_linear_421_1041)"/>
<path d="M8.91893 17.9995C10.97 17.9995 13.2074 16.9068 15.5693 14.7526C16.688 13.7378 17.6669 12.6452 18.3817 11.7709C18.3817 11.7709 17.2319 10.4753 15.9733 9.08603C15.2895 9.92895 14.3106 11.0685 13.1764 12.0988C11.0787 14.0032 9.69582 14.4091 8.91893 14.4091C5.96666 14.4091 3.57377 11.9895 3.57377 8.99235C3.57377 6.02639 5.96666 3.60683 8.91893 3.5756C9.05873 3.5756 9.22963 3.59119 9.43168 3.63802C8.57709 3.24778 7.64478 2.9668 6.77466 2.9668C1.36735 2.9668 0.310742 6.61961 0.248609 6.88497C0.0932377 7.55622 0 8.25868 0 8.97675C0 13.9564 3.99332 17.9995 8.91893 17.9995Z" fill="url(#paint1_linear_421_1041)"/>
<path fill-rule="evenodd" clip-rule="evenodd" d="M13.0302 5.97874C12.4399 5.41675 9.54976 3.12205 6.78392 3.04399C1.85506 2.92286 0.406171 6.43003 0.28125 6.88237C1.22535 2.94954 4.74454 0.0155668 8.9282 0C12.3389 0 15.7854 3.27321 18.3319 6.22726C18.3362 6.22229 18.3401 6.21746 18.3441 6.21281C18.3441 6.21281 19.4938 7.50846 20.7524 8.89777C20.7524 8.89777 22.1819 10.5525 23.7047 12.0042C24.2952 12.5662 27.1696 14.8297 29.9354 14.9078C35.0011 15.0483 36.3995 11.3486 36.477 11.0676C35.545 15.017 32.0177 17.9673 27.8222 17.9829C24.4106 17.9829 20.9627 14.7075 18.4055 11.7527C18.4004 11.7587 18.3956 11.7646 18.391 11.7702C18.391 11.7702 17.2412 10.4745 15.9825 9.08519C15.9825 9.08519 14.553 7.43047 13.0302 5.97874Z" fill="#29ABE2"/>
<path d="M133.06 4.52659C133.324 4.52659 133.508 4.63265 133.615 4.81842C133.667 4.92449 133.746 5.13673 133.536 5.42856L130.472 10.0981V13.2818C130.472 13.7063 130.209 13.9716 129.785 13.9716H129.363C128.941 13.9716 128.676 13.7063 128.676 13.2818V10.0981L125.586 5.42856C125.402 5.11025 125.453 4.89801 125.507 4.79183C125.586 4.60618 125.798 4.5 126.062 4.5H126.617C126.96 4.5 127.196 4.63265 127.355 4.92449L129.547 8.45318L131.766 4.92449C131.924 4.65924 132.162 4.52659 132.505 4.52659H133.06Z" fill="#262626"/>
<path d="M71.0319 4.52734H66.2254C65.8029 4.52734 65.5391 4.79265 65.5391 5.21713V13.3091C65.5391 13.7336 65.8029 13.999 66.2254 13.999H66.6478C67.0708 13.999 67.3347 13.7336 67.3347 13.3091V10.1253H70.4775C70.8999 10.1253 71.1638 9.83356 71.1638 9.43555V9.24985C71.1638 8.82531 70.8999 8.56002 70.4775 8.56002H67.3347V6.0661H71.0319C71.4543 6.0661 71.7188 5.8008 71.7188 5.37632V5.1906C71.7188 4.79264 71.4543 4.52734 71.0319 4.52734Z" fill="#262626"/>
<path fill-rule="evenodd" clip-rule="evenodd" d="M54.0177 4.52832H51.5619C51.139 4.52832 50.875 4.79362 50.875 5.2181V13.3101C50.875 13.7346 51.139 14 51.5619 14H54.0439C56.8962 14 58.877 12.0632 58.877 9.27742C58.8504 6.49162 56.8696 4.52832 54.0177 4.52832ZM57.0281 9.25082C57.0281 11.108 55.7868 12.4081 53.9913 12.4081H52.6707V6.06708H53.9913C55.7868 6.09366 57.0281 7.39371 57.0281 9.25082Z" fill="#262626"/>
<path d="M80.1199 4.52734H80.5428C80.9653 4.52734 81.2293 4.79265 81.2293 5.21713V13.3091C81.2293 13.7336 80.9653 13.999 80.5428 13.999H80.1199C79.6974 13.999 79.4336 13.7336 79.4336 13.3091V5.21713C79.4336 4.79265 79.6974 4.52734 80.1199 4.52734Z" fill="#262626"/>
<path d="M95.763 4.52832H95.3405C94.918 4.52832 94.6536 4.79363 94.6536 5.2181V10.6038L90.4548 4.8997C90.2701 4.63439 90.0323 4.52832 89.7152 4.52832H89.5305C89.1081 4.52832 88.8438 4.79363 88.8438 5.2181V13.3101C88.8438 13.7346 89.1081 14 89.5305 14H89.953C90.3755 14 90.6399 13.7346 90.6399 13.3101V7.89773L94.8387 13.6286C95.0233 13.8937 95.2612 14 95.5783 14H95.763C96.1853 14 96.4497 13.7346 96.4497 13.3101V5.2181C96.4497 4.79363 96.1853 4.52832 95.763 4.52832Z" fill="#262626"/>
<path d="M104.741 4.52734H105.164C105.56 4.52734 105.851 4.79265 105.851 5.21713V13.3091C105.851 13.7336 105.586 13.999 105.164 13.999H104.741C104.319 13.999 104.055 13.7336 104.055 13.3091V5.21713C104.055 4.79265 104.319 4.52734 104.741 4.52734Z" fill="#262626"/>
<path d="M119.798 4.52734H113.46C113.064 4.52734 112.773 4.79265 112.773 5.21713V5.40284C112.773 5.8008 113.037 6.09264 113.46 6.09264H115.731V13.3091C115.731 13.7336 115.995 13.999 116.418 13.999H116.84C117.263 13.999 117.527 13.7336 117.527 13.3091V6.09264H119.798C120.221 6.09264 120.484 5.82733 120.484 5.40284V5.21713C120.484 4.79265 120.221 4.52734 119.798 4.52734Z" fill="#262626"/>
<defs>
<linearGradient id="paint0_linear_421_1041" x1="23.1248" y1="3.36111" x2="33.3635" y2="13.9042" gradientUnits="userSpaceOnUse">
<stop offset="0.21" stop-color="#F15A24"/>
<stop offset="0.6841" stop-color="#FBB03B"/>
</linearGradient>
<linearGradient id="paint1_linear_421_1041" x1="13.5867" y1="14.6339" x2="3.34794" y2="4.09074" gradientUnits="userSpaceOnUse">
<stop offset="0.21" stop-color="#ED1E79"/>
<stop offset="0.8929" stop-color="#522785"/>
</linearGradient>
</defs>
</svg>
